<?xml version="1.0" encoding="UTF-8" standalone="no"?>
<!-- Created with Inkscape (http://www.inkscape.org/) -->
<svg
   xmlns:svg="http://www.w3.org/2000/svg"
   xmlns="http://www.w3.org/2000/svg"
   version="1.0"
   width="1536pt"
   height="651pt"
   viewBox="0 0 1536 651"
   id="Logo_klassikradio">
  <path
     d="M 0,0 L 1536,0 L 1536,651 L 0,651 L 0,0 z"
     id="bg_white"
     style="fill:#ffffff;fill-rule:nonzero;stroke:none" />
  <path
     d="M 33.232788,8.880447 C 36.044678,7.917175 39.024857,7.687897 41.897354,6.980301 C 146.25694,6.696838 250.62701,6.939819 354.99078,6.858826 C 696.32782,6.858826 1037.6647,6.858826 1379.0018,6.858826 C 1417.3637,6.938416 1455.7325,6.699692 1494.0922,6.978058 C 1502.4289,8.145081 1510.7859,11.076874 1516.8449,17.157288 C 1522.4651,22.158051 1526.1501,28.961273 1528.0728,36.181351 C 1529.6764,44.697662 1529.0365,53.367233 1529.153,61.979355 C 1529.1527,237.97278 1529.1527,413.966 1529.153,589.9595 C 1529.0454,598.24948 1529.6706,606.60057 1528.0507,614.7924 C 1524.8563,628.53032 1513.5239,639.80698 1499.8204,643.06479 C 1491.6194,644.63838 1483.2744,644.05855 1474.985,644.14902 C 998.33682,644.14244 521.68814,644.16206 45.040482,644.13922 C 42.062866,644.00063 39.136063,643.38133 36.177338,643.06018 C 22.481384,639.81337 11.160797,628.54506 7.95813,614.82538 C 7.618759,611.86334 6.978958,608.93578 6.854309,605.95988 C 6.83313,419.28697 6.860367,232.61301 6.840714,45.939835 C 6.849838,42.65477 7.597641,39.437057 7.929749,36.180557 C 11.008011,23.584915 20.749863,12.672699 33.232788,8.880447 z"
     id="bg_black"
     style="fill:#000000;fill-rule:nonzero;stroke:none" />
  <path
     d="M 1042.4442,551.84497 C 1042.4439,401.15353 1042.4297,250.46236 1042.4513,99.771027 C 1081.0651,99.771317 1119.6793,99.768509 1158.2944,99.772461 C 1158.2791,250.46336 1158.3094,401.15413 1158.2792,551.84509 C 1119.6669,551.83649 1081.0553,551.8367 1042.4442,551.84497 z M 1185.2449,216.27359 C 1241.5643,216.29617 1297.8841,216.2299 1354.2044,216.30792 C 1339.1631,225.07175 1325.7015,236.48271 1314.8251,250.07722 C 1287.4953,284.28746 1273.9811,328.12144 1272.3318,371.5195 C 1271.5547,377.58638 1271.6403,383.76482 1272.3503,389.83646 C 1273.9123,432.53514 1286.9671,475.65286 1313.4423,509.61638 C 1327.771,528.16243 1346.8011,543.3981 1368.8394,551.69542 C 1307.6441,552.03653 1246.4408,551.73607 1185.2431,551.84595 C 1185.2472,439.98836 1185.2433,328.13104 1185.2449,216.27359 z"
     id="green"
     style="fill:#85ff00;fill-rule:nonzero;stroke:none" />
  <path
     d="M 302.83913,248.2439 C 314.16359,248.20369 325.48857,248.24297 336.81435,248.22333 C 336.82753,292.5872 336.81432,336.95105 336.82051,381.31525 C 325.49654,381.32243 314.17339,381.32733 302.85066,381.31444 C 302.82346,336.95743 302.84699,292.60065 302.83913,248.2439 z M 425.325,275.2 C 420.88258,275.20311 416.45922,275.29453 412.05,275.35 C 407.3936,275.87423 402.7292,276.40725 398.075,276.925 C 388.7419,279.08584 378.72361,281.58131 372,288.925 C 366.75668,293.85822 364.47074,300.87959 363,307.725 C 374.54134,307.82734 386.08193,307.8174 397.625,307.75 C 399.78087,304.45062 402.72037,301.38828 406.725,300.55 C 418.35044,297.90643 430.6375,298.07238 442.275,300.55 C 447.86152,301.77356 452.40926,306.06505 453.3,311.825 C 453.30464,313.27199 453.33526,314.72011 453.35,316.175 C 440.57765,316.16644 427.79576,316.20502 415.025,316.175 C 403.61418,316.99574 392.07039,316.84445 380.9,319.775 C 378.31672,320.67565 375.77194,321.6618 373.225,322.65 C 366.60967,325.9074 361.1119,331.6661 359.25,338.925 C 358.12297,341.85802 358.63306,345.06778 357.75,348.05 C 357.75046,348.74474 357.74955,350.13026 357.75,350.825 C 358.5693,354.15703 358.3649,357.68438 359.75,360.9 C 363.52773,371.3271 373.48636,378.15676 383.8,381.175 C 387.5182,381.98102 391.28314,382.62286 395.025,383.325 C 399.37849,383.27492 403.71106,383.47126 408.025,384.025 C 411.72954,383.2681 415.52303,383.48992 419.275,383.25 C 426.53762,382.00766 433.9242,380.6602 440.55,377.275 C 444.78271,375.11946 449.15894,373.22494 453.15,370.625 C 453.28995,374.28041 454.05622,377.86725 455.325,381.3 C 467.71554,381.3033 480.10811,381.36021 492.5,381.275 C 489.82472,377.25539 487.492,372.86344 487.35,367.925 C 487.16718,347.65434 487.40142,327.3717 487.225,307.1 C 485.85041,300.61273 484.27126,293.5305 479.125,288.9 C 475.29016,284.62878 469.91642,282.32968 464.75,280.125 C 452.01925,275.89644 438.65228,275.19066 425.325,275.2 z M 419.975,334.2 C 429.49012,334.16698 439.0075,334.1865 448.525,334.2 C 449.68319,342.07629 444.23316,348.93318 438.225,353.275 C 431.75342,358.06695 423.70878,359.97867 415.875,361.075 C 409.93436,361.61365 403.86742,360.98253 398.2,359.125 C 393.51217,357.46534 389.09935,353.26359 389.5,347.925 C 389.47754,343.33027 393.24299,340.15161 396.725,337.8 C 404.15266,334.90194 412.15773,334.87986 419.975,334.2 z M 684.1984,277.01047 C 699.00243,274.7583 714.18213,274.3996 728.92682,277.29785 C 740.71497,279.8589 752.65997,285.00218 759.97656,295.02214 C 762.52791,298.80772 764.16591,303.11179 765.41295,307.48406 C 753.9193,308.08775 742.46738,308.85478 730.99129,309.67659 C 729.08995,306.13033 726.65419,302.76001 722.81407,301.16203 C 712.97359,296.76691 701.55711,296.34265 691.2095,299.11375 C 687.83254,300.2856 683.7906,301.6207 682.30476,305.2133 C 681.7076,307.25374 682.30682,309.88824 684.30238,310.97082 C 688.36529,313.75116 693.40152,314.08804 698.07793,315.11806 C 712.44693,316.64049 726.86054,317.72501 741.17136,319.73047 C 745.88242,320.98616 750.62552,322.52544 754.67328,325.33037 C 759.79649,328.63007 763.17018,334.16821 764.81764,339.9464 C 766.95531,348.82889 765.22768,358.97292 759.24673,366.05984 C 748.14262,378.82727 730.1469,382.40391 713.99475,382.78239 C 708.79007,383.79095 703.18747,383.74777 697.97887,382.80127 C 691.9677,382.87833 686.00024,382.08345 680.1318,380.84465 C 670.26604,378.92648 660.29246,375.22925 653.05923,367.99512 C 647.47606,362.81277 644.30957,355.64268 642.15332,348.47017 C 645.05067,347.68285 648.02716,347.20342 651.0453,347.32939 C 659.93402,346.61571 668.85075,346.0488 677.752,345.31815 C 679.81654,351.0914 684.25908,356.22328 690.20888,358.15915 C 698.1035,361.24326 706.74463,360.47768 715.0392,360.46368 C 720.49596,359.41685 727.28447,358.80463 730.56253,353.63028 C 732.87088,350.13568 729.89551,345.48068 726.22127,344.46794 C 707.44423,338.64415 687.22195,341.12057 668.40291,335.5128 C 659.52138,332.82523 650.80611,326.42188 648.75218,316.90767 C 647.12434,308.46641 648.09155,298.81532 653.95196,292.10793 C 661.37584,283.04347 673.13951,279.34502 684.1984,277.01047 z M 548.03981,276.76442 C 556.00645,275.96507 563.96246,274.88283 571.99449,275.24381 C 587.06836,275.72876 603.13016,278.09352 615.33206,287.70242 C 621.87418,292.3248 626.11299,299.59197 627.84296,307.33618 C 623.97423,308.09998 619.99745,307.45485 616.1376,308.23137 C 612.47667,308.83086 608.72923,308.15979 605.0883,308.90849 C 601.28329,309.57199 597.37981,308.85519 593.59671,309.68208 C 590.7962,304.40347 585.84012,300.50963 580.02312,299.11958 C 570.62469,296.56198 560.50131,296.79681 551.24011,299.79985 C 548.3116,300.67273 546.30746,303.03996 544.69995,305.49756 C 544.72438,306.3571 544.77324,308.07616 544.79767,308.93568 C 546.43666,310.49197 548.02293,312.35455 550.36702,312.82109 C 557.88638,315.07735 565.76808,315.84672 573.57591,316.25453 L 574.40446,316.74635 C 584.35701,317.48245 594.3945,317.97925 604.19871,320.04987 C 608.98839,321.01973 613.61888,322.81081 617.67688,325.56395 C 619.54579,327.51492 621.46643,329.4211 623.41504,331.3036 C 629.11212,339.96541 629.51735,351.74205 624.96075,360.96985 C 620.97847,369.35863 612.78235,374.72974 604.33363,377.89287 C 590.8177,382.71484 576.27371,383.64549 562.04808,383.28616 C 558.65941,382.18425 555.05144,383.05112 551.60223,382.39127 C 541.62353,380.9279 531.34761,378.99963 522.70169,373.50992 C 519.98854,371.88376 517.64053,369.75693 515.09132,367.91254 C 513.13347,365.19362 510.89427,362.67732 509.20959,359.77335 C 507.00569,356.25223 506.08227,352.16144 504.73459,348.28564 C 509.45801,346.88982 514.41363,347.75662 519.19515,346.77432 C 526.24403,346.5697 533.27484,345.91898 540.28445,345.1064 C 541.55219,348.92619 543.50899,352.75806 546.96407,355.04208 C 553.88234,360.02502 562.77019,360.83548 571.04256,360.51942 C 577.13823,360.8678 583.24672,359.80028 588.9337,357.5967 C 591.51581,356.07195 593.35565,353.74072 593.97452,350.77011 C 593.43294,349.36888 592.95129,347.94362 592.23113,346.63139 C 589.47528,344.65311 586.1868,343.51491 582.90274,342.79185 C 575.96996,341.80322 569.08208,340.23241 562.04741,340.28192 C 547.6994,338.34444 531.86812,338.69633 519.6255,329.74088 C 516.42291,327.47228 514.13368,324.25035 512.37894,320.79219 C 509.25568,312.24757 509.73781,302.32359 514.65649,294.54698 C 520.15996,286.56074 528.95767,281.53197 538.19222,279.04605 C 541.43897,278.14529 544.7588,277.54103 548.03981,276.76442 z M 156.64511,278.68538 C 168.20006,278.7009 179.75516,278.69675 191.31078,278.68741 C 191.42229,292.04936 191.0983,305.42104 191.4774,318.77788 C 206.63782,305.20844 222.45439,292.37441 237.48303,278.66544 C 252.50369,278.76533 267.52596,278.60524 282.54688,278.74838 C 266.50871,292.24652 250.20171,305.42345 234.14165,318.897 C 234.3784,319.05516 234.8519,319.37147 235.08864,319.52963 C 239.16301,324.25685 242.93666,329.2682 247.33824,333.7099 L 247.55934,334.5838 C 251.88121,339.00989 255.80212,343.82362 259.64871,348.66814 C 261.10771,350.20274 262.57556,351.74374 263.81653,353.47343 C 271.90544,362.57022 279.58664,372.01894 287.54828,381.22858 C 273.11176,381.42972 258.67136,381.28154 244.23392,381.30779 C 243.3859,380.40559 242.54028,379.52023 241.69574,378.63117 C 231.3154,365.00618 220.11113,352.0159 209.8661,338.28783 C 203.49367,343.16824 197.74292,348.81424 191.33604,353.65861 C 191.28139,362.87987 191.33351,372.10208 191.30862,381.32523 C 179.75262,381.30666 168.19713,381.32901 156.64177,381.32187 C 156.66008,347.10942 156.65099,312.8974 156.64511,278.68538 z M 786.70383,278.69327 C 798.02238,278.69028 809.34228,278.70241 820.66399,278.68744 C 820.68387,312.89891 820.67412,347.1104 820.66928,381.3223 C 809.34496,381.3172 798.02242,381.32538 786.70125,381.31375 C 786.70956,347.10663 786.7059,312.89995 786.70383,278.69327 z M 847.69653,278.69106 C 859.25435,278.69469 870.8136,278.69728 882.37473,278.69011 C 882.36289,291.93256 882.36322,305.17529 882.37575,318.41873 C 886.31537,315.37584 890.14276,312.16154 893.66783,308.63866 L 894.56952,308.44037 C 900.17679,302.69353 906.74641,297.99471 912.59723,292.50488 C 917.8523,287.83594 923.38432,283.47302 928.53856,278.68816 C 943.4357,278.79233 958.34062,278.50401 973.23619,278.83853 C 957.32935,292.39352 941.06328,305.53149 924.9837,318.88225 C 926.68433,320.61006 928.44957,322.30641 929.92194,324.25569 C 943.13362,339.54518 956.01627,355.12088 969.32301,370.3228 C 972.25851,374.09927 975.50398,377.62311 978.65095,381.22946 C 963.96106,381.44125 949.26839,381.25066 934.5797,381.33398 C 934.26855,380.8387 933.6463,379.84811 933.33516,379.35283 C 922.15167,365.84726 911.64577,351.78635 900.4005,338.32921 C 894.35436,343.42366 888.43121,348.657 882.37125,353.73 C 882.36728,362.9286 882.36462,372.12784 882.3694,381.32822 C 870.8114,381.31679 859.25528,381.31656 847.70061,381.32774 C 847.69978,347.11522 847.70754,312.90314 847.69653,278.69106 z M 726.425,415.3 C 726.37882,429.77234 726.50999,444.25276 726.325,458.725 C 719.05963,452.51159 709.97822,449.15441 700.825,446.875 C 690.30529,444.80197 679.34662,444.75106 668.975,447.65 C 656.58247,450.8383 645.67712,458.89611 638.625,469.525 C 626.49051,488.92667 627.03922,515.9889 640.8,534.45 C 644.7492,538.42429 648.39741,542.8575 653.35,545.65 C 658.64793,549.21206 664.68106,551.45663 670.825,553.075 C 689.95464,557.27603 711.77783,553.56598 726.35,539.825 C 726.42239,543.6089 726.40653,547.40897 726.425,551.2 C 737.73884,551.20767 749.05819,551.19518 760.375,551.2 C 760.38707,505.89918 760.38231,460.60035 760.375,415.3 C 749.05406,415.28831 737.74303,415.29932 726.425,415.3 z M 694.65,469.4 C 698.12958,469.40214 701.62212,470.23702 705.05,470.85 C 707.19663,471.49176 709.32244,472.23286 711.45,472.975 C 718.48501,476.32891 724.28798,482.48074 726.1,490.2 C 728.18025,500.45306 727.18221,512.04076 720.5,520.5 C 715.19026,527.35094 706.39306,530.66739 697.95,531.15 C 689.78339,531.67073 681.10843,529.61226 674.875,524.1 C 671.23593,520.48885 668.60422,515.98243 666.95,511.15 C 664.83734,503.44291 664.41255,494.96076 667.575,487.475 C 670.94488,477.9854 680.06293,471.30674 689.925,470 C 691.49718,469.5625 693.06837,469.39903 694.65,469.4 z M 911.6,443.675 C 911.10008,443.67734 910.60272,443.70057 910.1,443.75 C 906.47856,445.0491 902.55064,443.92778 898.85,444.8 C 881.80616,447.10659 864.40368,453.69358 853.02496,467.1 C 846.40104,474.49153 842.52808,484.08394 841.5,493.9 C 841.60992,499.71755 840.94016,505.65303 842.32496,511.375 C 843.84016,519.63353 848.16192,527.11272 853.42496,533.55 C 862.83592,543.97227 876.19928,550.29603 889.82496,553.025 C 900.08016,554.99666 910.74528,556.24372 921.12496,554.75 C 935.58192,554.1181 950.05008,549.45323 961.85,541 C 971.41208,534.375 977.92768,524.05925 981.12496,512.975 C 982.09144,506.29911 983.61624,499.53033 982.45,492.775 C 981.40928,481.59365 976.16888,470.91719 968.25,463 C 966.5888,461.66718 965.03728,460.2241 963.55,458.725 C 951.57168,449.85874 936.84632,445.28196 922.07504,444.4 C 918.5476,444.63065 915.0996,443.65864 911.6,443.675 z M 914.1,468.65 C 914.81336,468.77944 916.23664,469.02056 916.95,469.15 C 925.91576,469.5628 935.01872,473.24681 940.95,480.125 C 948.03552,488.47686 949.42328,500.7197 945.42496,510.775 C 942.39656,519.35362 934.73552,525.36194 926.32496,528.225 C 919.74256,530.32624 912.78832,529.57629 906,529.65 C 901.36144,529.18198 896.85656,527.82627 892.57504,526.025 C 884.92888,522.41726 879.30352,515.18695 877.5,506.95 C 876.40816,503.06239 876.80992,498.99976 876.85,495.025 C 878.54632,487.49334 882.142,480.02894 888.75,475.65 C 896.1188,470.43861 905.31152,469.09121 914.1,468.65 z M 449.28336,449.17561 C 454.88029,447.22987 460.76163,445.65627 466.73207,445.72435 L 467.68544,445.1499 C 469.59169,445.1591 471.50362,445.16753 473.42191,445.17622 C 473.41255,455.31546 473.42477,465.45546 473.4169,475.59671 C 468.92752,475.58684 464.44087,475.58192 459.95615,475.57468 C 455.46014,475.46803 451.15547,476.95218 446.80313,477.84706 C 442.70245,479.43272 438.81462,481.6701 435.59168,484.67567 C 431.93732,488.85263 430.31157,494.52525 430.42395,500.01166 C 430.48106,517.07306 430.42078,534.13516 430.45531,551.198 C 418.89238,551.19861 407.33049,551.20413 395.76915,551.19455 C 395.75035,516.97693 395.76497,482.75983 395.76109,448.54285 C 407.32632,448.56897 418.8922,448.53922 430.45903,448.55612 C 430.41119,453.98631 430.49889,459.41899 430.39714,464.85248 C 434.89818,457.84845 441.38405,452.02382 449.28336,449.17561 z M 549.525,445.15 C 545.67882,445.15198 541.81952,445.15733 537.975,445.175 C 525.96089,446.23672 513.42022,447.37445 502.8,453.625 C 493.81622,458.32675 489.01014,468.01633 487.025,477.575 C 498.52714,477.70647 510.05663,477.80718 521.55,477.525 C 523.36285,475.34304 525.28866,473.2277 527.675,471.65 C 531.65834,470.25292 535.76168,469.39525 539.925,468.75 C 550.29901,468.62147 561.27253,467.77207 570.925,472.325 C 576.03686,474.73523 577.75246,480.85513 577.45,486.1 C 565.28597,486.37595 553.13002,485.67214 540.975,486 C 535.6783,486.94568 530.29497,486.60892 524.95,486.7 C 519.22968,487.33065 513.47637,487.6614 507.85,488.975 C 502.73625,490.00546 498.03398,492.24535 493.475,494.7 C 486.29708,499.62234 482.01762,508.34662 482.425,517.025 C 482.63,521.00818 481.78769,525.18775 483.425,528.975 C 485.82371,538.2463 493.59666,545.26202 502.175,548.925 C 509.62262,552.12668 517.83334,553.17534 525.875,553.45 C 531.93736,554.61521 538.01074,553.03906 544.1,553.125 C 555.89786,551.36482 567.24958,547.06654 577.2,540.475 C 577.3313,544.14222 578.1796,547.743 579.4,551.2 C 591.80231,551.18128 604.19574,551.24542 616.6,551.175 C 613.72796,546.97978 611.66673,542.23815 611.425,537.1 C 611.12146,516.4357 611.72326,495.74982 611.1,475.1 C 609.74474,468.14623 606.84736,461.25038 601.125,456.775 C 589.9178,447.71103 574.86705,446.36818 561.05,445.2 C 557.20419,445.15464 553.37118,445.14802 549.525,445.15 z M 567.425,504.075 C 570.79014,504.08307 574.15842,504.1174 577.525,504.15 C 577.39902,505.44083 577.25888,506.74726 577.125,508.05 C 576.06462,513.90101 572.58869,519.19301 567.65,522.5 C 562.74378,526.38117 556.68851,528.23186 550.825,530.1 C 541.7185,531.46903 531.74932,532.06536 523.45,527.35 C 516.72574,524.19265 516.66498,513.49462 522.5,509.4 C 526.78585,506.34502 532.0974,505.64135 537.15,504.8 C 547.22193,504.2041 557.32957,504.05078 567.425,504.075 z M 787.41722,447.20775 C 798.73756,447.20746 810.05923,447.20731 821.38274,447.20695 C 821.36542,481.87122 821.38434,516.5356 821.3736,551.20048 C 810.05138,551.19753 798.73096,551.1991 787.4119,551.201 C 787.42114,516.53619 787.41069,481.87193 787.41722,447.20775 z"
     id="text"
     style="fill:#ffffff;fill-rule:nonzero;stroke:none" />
</svg>
