<svg width="500" height="275" viewBox="0 0 500 275" fill="none" xmlns="http://www.w3.org/2000/svg">
<path d="M497 143V23.8329L494.514 23.4338C441.487 14.9209 348.464 3 247.516 3C147.42 3 57.1353 14.922 5.48327 23.2643L3 23.6653V143H497Z" fill="#E6001E"/>
<path d="M497 143H3V251.996L5.48455 252.396C58.338 260.908 151.534 273 252.655 273C350.186 273 441.842 260.907 494.508 252.567L497 252.173V143Z" fill="#004898"/>
<path d="M195.88 225.249V180.846H215.607V167.018H160.738V180.846H180.529V225.249H195.88Z" fill="white"/>
<path fill-rule="evenodd" clip-rule="evenodd" d="M47.3842 215.861L43.9588 225.249H28.3544L49.9849 167.081H68.8878L90.5183 225.249H74.9773L71.4885 215.861H47.3842ZM66.6042 202.096L59.4998 180.212L52.3319 202.096H66.6042Z" fill="white"/>
<path d="M152.999 225.249H139.742L116.145 195.753L113.164 191.186V225.249H97.8131V167.081H110.88L135.302 198.417L137.649 202.033V167.081H152.999V225.249Z" fill="white"/>
<path d="M239.395 189.283H258.298V203.111H239.395V211.484H272.887V225.313H224.044V167.145H272.887V180.973H239.395V189.283Z" fill="white"/>
<path d="M325.473 225.249H338.73V167.081H323.379V202.033L321.032 198.417L296.611 167.081H283.544V225.249H298.894V191.186L301.876 195.753L325.473 225.249Z" fill="white"/>
<path d="M405.969 225.249H392.711L369.114 195.753L366.133 191.186V225.249H350.782V167.081H363.849L388.271 198.417L390.618 202.033V167.081H405.969V225.249Z" fill="white"/>
<path d="M451.767 189.283H432.864V180.973H466.357V167.145H417.513V225.313H466.357V211.484H432.864V203.111H451.767V189.283Z" fill="white"/>
<path d="M164.037 80.3691C164.037 55.2498 184.399 34.8879 209.518 34.8879C234.637 34.8879 254.999 55.2498 254.999 80.3691C254.999 105.488 234.637 125.85 209.518 125.85C184.399 125.85 164.037 105.488 164.037 80.3691Z" fill="white"/>
<path fill-rule="evenodd" clip-rule="evenodd" d="M153.887 120.585L142.216 87.2198C149.637 82.9064 154.014 74.8505 154.078 65.6528C154.078 51.8879 144.436 40.2163 129.149 40.2163H81.6377V120.585H102.824V90.5818H121.537L131.369 120.585H153.887ZM134.794 65.6528C134.794 69.4587 132.067 71.6788 128.451 71.552H102.824V59.3095H128.451C132.067 59.3095 134.794 61.8468 134.794 65.6528Z" fill="white"/>
<path d="M320.969 95.3392L336.637 109.294C329.215 117.223 318.368 122.235 306.316 122.235C282.529 122.235 263.943 103.522 263.943 80.3691C263.943 57.1528 282.529 38.5036 306.316 38.5036C318.368 38.5036 329.215 43.5148 336.637 51.4439L320.906 65.3356C317.163 61.3393 312.279 58.802 306.253 58.802C294.327 58.802 285.574 68.3169 285.574 80.3691C285.574 92.4213 294.327 101.936 306.253 101.936C312.279 102 317.29 99.3989 320.969 95.3392Z" fill="white"/>
<path d="M367.846 120.522V86.3952L396.327 120.585H423.666L387.7 79.4811L423.54 40.2163H396.2L367.846 72.9475V40.2163H346.659V120.522H367.846Z" fill="white"/>
<path d="M252.335 57.914L220.745 62.1005L212.943 23.2798L196.197 65.399L166.637 69.3953L188.395 89.6303L167.208 137.268L209.01 104.283L235.716 115.828L229.182 89.3766L252.335 57.914Z" fill="#004898"/>
<path fill-rule="evenodd" clip-rule="evenodd" d="M2.51343 20.6395C54.7928 12.1428 146.174 0 247.486 0C349.66 0 443.812 12.1417 497.484 20.8122L500 21.2187V253.787L497.477 254.189C444.172 262.683 351.402 275 252.688 275C150.338 275 56.0102 262.685 2.51473 254.014L0 253.607V21.048L2.51343 20.6395ZM5.98917 26.1348V248.518C59.7147 257.132 152.358 269.021 252.688 269.021C349.417 269.021 440.481 257.136 494.011 248.684V26.3105C440.128 17.7018 347.651 5.97939 247.486 5.97939C148.219 5.97939 58.4777 17.6914 5.98917 26.1348Z" fill="white"/>
</svg>
