<?xml version="1.0" encoding="UTF-8" standalone="no"?>
<!-- Created with Inkscape (http://www.inkscape.org/) -->

<svg
   xmlns:dc="http://purl.org/dc/elements/1.1/"
   xmlns:cc="http://creativecommons.org/ns#"
   xmlns:rdf="http://www.w3.org/1999/02/22-rdf-syntax-ns#"
   xmlns:svg="http://www.w3.org/2000/svg"
   xmlns="http://www.w3.org/2000/svg"
   version="1.1"
   width="1024"
   height="260"
   id="svg3718">
  <defs
     id="defs3720">
    <clipPath
       id="clipPath3345">
      <path
         d="m 234.537,12.614 126.201,0 0,38.882 -126.201,0 0,-38.882 z"
         id="path3347" />
    </clipPath>
  </defs>
  <metadata
     id="metadata3723">
    <rdf:RDF>
      <cc:Work
         rdf:about="">
        <dc:format>image/svg+xml</dc:format>
        <dc:type
           rdf:resource="http://purl.org/dc/dcmitype/StillImage" />
        <dc:title></dc:title>
      </cc:Work>
    </rdf:RDF>
  </metadata>
  <g
     transform="translate(0,-508)"
     id="layer1">
    <g
       transform="matrix(8.5707089,0,0,-8.5707089,-2040.3024,909.28598)"
       id="g3341">
      <g
         clip-path="url(#clipPath3345)"
         id="g3343">
        <g
           transform="matrix(0.4173584,0,0,-0.4204254,181.68616,277.00366)"
           id="g3349">
          <g
             transform="translate(419.9275,574.9771)"
             id="g3351">
            <path
               d="m 0,0 c 0,14.408 -11.683,26.088 -26.091,26.088 l -231.275,0 c -14.407,0 -26.097,-11.68 -26.097,-26.088 0,-14.408 11.68,-26.088 26.088,-26.088 l 231.275,0 C -11.693,-26.088 0,-14.41 0,0"
               id="path3353"
               style="fill:#ffffff;fill-opacity:1;fill-rule:nonzero;stroke:none" />
          </g>
        </g>
        <g
           transform="matrix(0.4173584,0,0,-0.4204254,181.68616,277.00366)"
           id="g3355">
          <g
             transform="translate(393.8275,551.6412)"
             id="g3357">
            <path
               d="m 0,0 c 12.888,0 23.348,10.447 23.348,23.336 0,12.887 -10.45,23.336 -23.339,23.336 l -231.275,0 c -12.888,0 -23.345,-10.447 -23.345,-23.336 C -254.611,10.447 -244.163,0 -231.275,0 L 0,0 z"
               id="path3359"
               style="fill:#f47216;fill-opacity:1;fill-rule:nonzero;stroke:none" />
          </g>
        </g>
        <g
           transform="matrix(0.4173584,0,0,-0.4204254,181.68616,277.00366)"
           id="g3361">
          <g
             transform="translate(393.8275,551.6412)"
             id="g3363">
            <path
               d="m 0,0 c 12.888,0 23.348,10.447 23.348,23.336 0,12.887 -10.45,23.336 -23.339,23.336 l -33.62,0 C -46.5,46.672 -56.957,36.225 -56.957,23.336 -56.957,10.447 -46.509,0 -33.621,0 L 0,0 z"
               id="path3365"
               style="fill:#1a68bb;fill-opacity:1;fill-rule:nonzero;stroke:none" />
          </g>
        </g>
        <g
           transform="matrix(0.4173584,0,0,-0.4204254,181.68616,277.00366)"
           id="g3367">
          <g
             transform="translate(160.0148,572.8013)"
             id="g3369">
            <path
               d="m 0,0 c -0.753,0 -1.017,-0.197 -0.96,-0.559 l 0.106,-0.654 c 0.058,-0.361 0.384,-0.559 1.138,-0.559 l 5.999,0 c 1.803,0 3.924,0.262 4.427,1.018 l -0.041,-3.836 -13.309,0 c -2.951,0 -5.137,1.572 -5.516,3.934 l -0.478,2.982 c -0.207,1.902 0.062,3.705 3.602,3.705 l 6.72,0 c 0.787,0 0.985,0.197 0.885,0.821 L 2.52,7.18 C 2.42,7.803 2.16,7.998 1.373,7.998 l -6.524,0 c -2.721,0 -3.372,-0.229 -4.677,-0.885 l -0.004,3.705 14.359,0 c 3.442,0 4.958,-2.097 5.274,-4.064 L 10.295,3.672 C 10.497,1.803 10.228,0 6.688,0 L 0,0 z"
               id="path3371"
               style="fill:#ffffff;fill-opacity:1;fill-rule:nonzero;stroke:none" />
          </g>
        </g>
        <g
           transform="matrix(0.4173584,0,0,-0.4204254,181.68616,277.00366)"
           id="g3373">
          <g
             transform="translate(194.612,583.6198)"
             id="g3375">
            <path
               d="m 0,0 c -0.333,-0.787 -0.627,-1.41 -0.285,-3.541 l 1.904,-11.867 -8.589,0 c 0.332,0.785 0.626,1.408 0.284,3.539 L -7.9,-4.295 c -0.153,0.951 -0.533,1.279 -1.484,1.279 l -2.819,0 c -0.951,0 -1.226,-0.328 -1.073,-1.279 l 1.782,-11.113 -8.589,0 c 0.333,0.785 0.626,1.408 0.285,3.539 l -1.005,6.263 C -21.355,-2.164 -20.194,0 -16.555,0 l 6.261,0 c 1.148,0 1.77,-0.82 2.258,-1.608 l 0.065,0 L -7.999,0 0,0 z"
               id="path3377"
               style="fill:#ffffff;fill-opacity:1;fill-rule:nonzero;stroke:none" />
          </g>
        </g>
        <g
           transform="matrix(0.4173584,0,0,-0.4204254,181.68616,277.00366)"
           id="g3379">
          <g
             transform="translate(199.1857,568.2115)"
             id="g3381">
            <path
               d="m 0,0 c 0.333,0.785 0.626,1.408 0.284,3.539 l -1.335,8.328 c -0.342,2.131 -0.835,2.754 -1.42,3.541 l 9.441,0 C 6.637,14.621 6.344,13.998 6.686,11.867 L 7.9,4.295 C 8.053,3.344 8.433,3.016 9.384,3.016 l 2.819,0 c 0.95,0 1.226,0.328 1.073,1.279 l -1.214,7.572 c -0.341,2.131 -0.835,2.754 -1.42,3.541 l 9.441,0 C 19.75,14.621 19.456,13.998 19.798,11.867 L 20.803,5.605 C 21.355,2.162 20.194,0 16.555,0 L 10.293,0 C 9.146,0 8.523,0.818 8.036,1.605 l -0.065,0 L 7.999,0 0,0 z"
               id="path3383"
               style="fill:#ffffff;fill-opacity:1;fill-rule:nonzero;stroke:none" />
          </g>
        </g>
        <g
           transform="matrix(0.4173584,0,0,-0.4204254,181.68616,277.00366)"
           id="g3385">
          <g
             transform="translate(232.1872,572.8013)"
             id="g3387">
            <path
               d="m 0,0 c -0.754,0 -1.018,-0.197 -0.96,-0.559 l 0.105,-0.654 c 0.059,-0.361 0.385,-0.559 1.139,-0.559 l 5.998,0 c 1.804,0 3.926,0.262 4.427,1.018 l -0.04,-3.836 -13.31,0 c -2.95,0 -5.137,1.572 -5.515,3.934 l -0.479,2.982 c -0.206,1.902 0.062,3.705 3.603,3.705 l 6.72,0 c 0.787,0 0.985,0.197 0.885,0.821 L 2.52,7.18 C 2.42,7.803 2.159,7.998 1.372,7.998 l -6.523,0 c -2.722,0 -3.373,-0.229 -4.677,-0.885 l -0.004,3.705 14.358,0 c 3.442,0 4.959,-2.097 5.274,-4.064 L 10.295,3.672 C 10.496,1.803 10.228,0 6.687,0 L 0,0 z"
               id="path3389"
               style="fill:#ffffff;fill-opacity:1;fill-rule:nonzero;stroke:none" />
          </g>
        </g>
        <g
           transform="matrix(0.4173584,0,0,-0.4204254,181.68616,277.00366)"
           id="g3391">
          <g
             transform="translate(247.5945,562.6372)"
             id="g3393">
            <path
               d="m 0,0 c 0.332,0.787 0.626,1.41 0.285,3.541 l -2.229,13.901 c -0.342,2.13 -0.835,2.753 -1.421,3.541 l 9.441,0 C 5.744,20.195 5.451,19.572 5.792,17.442 L 7.006,9.869 C 7.159,8.918 7.539,8.59 8.49,8.59 l 2.819,0 c 0.951,0 1.226,0.328 1.074,1.279 l -1.215,7.573 c -0.341,2.13 -0.835,2.753 -1.42,3.541 l 9.441,0 C 18.857,20.195 18.563,19.572 18.905,17.442 L 19.909,11.18 C 20.461,7.736 19.3,5.574 15.661,5.574 l -6.032,0 c -0.852,0 -1.058,0.262 -2.11,1.508 l -0.066,0 L 8.589,0 0,0 z"
               id="path3395"
               style="fill:#ffffff;fill-opacity:1;fill-rule:nonzero;stroke:none" />
          </g>
        </g>
        <g
           transform="matrix(0.4173584,0,0,-0.4204254,181.68616,277.00366)"
           id="g3397">
          <g
             transform="translate(273.6615,562.6372)"
             id="g3399">
            <path
               d="m 0,0 -0.653,4.065 7.606,0 L 7.606,0 0,0 z m -2.863,17.442 c -0.342,2.13 -0.835,2.753 -1.42,3.541 l 9.441,0 C 4.825,20.195 4.532,19.572 4.874,17.442 l 1.904,-11.868 -8.59,0 c 0.333,0.785 0.626,1.409 0.284,3.539 l -1.335,8.329 z"
               id="path3401"
               style="fill:#ffffff;fill-opacity:1;fill-rule:evenodd;stroke:none" />
          </g>
        </g>
        <g
           transform="matrix(0.4173584,0,0,-0.4204254,181.68616,277.00366)"
           id="g3403">
          <g
             transform="translate(283.8785,568.2115)"
             id="g3405">
            <path
               d="m 0,0 c 0.333,0.785 0.627,1.408 0.285,3.539 l -1.335,8.328 c -0.342,2.131 -0.836,2.754 -1.421,3.541 l 9.442,0 C 6.638,14.621 6.345,13.998 6.687,11.867 L 7.9,4.295 C 8.053,3.344 8.434,3.016 9.384,3.016 l 2.82,0 c 0.95,0 1.226,0.328 1.073,1.279 l -1.214,7.572 c -0.342,2.131 -0.835,2.754 -1.42,3.541 l 9.44,0 c -0.332,-0.787 -0.626,-1.41 -0.284,-3.541 L 20.804,5.605 C 21.356,2.162 20.194,0 16.556,0 L 10.294,0 C 9.148,0 8.524,0.818 8.037,1.605 l -0.065,0 L 8,0 0,0 z"
               id="path3407"
               style="fill:#ffffff;fill-opacity:1;fill-rule:nonzero;stroke:none" />
          </g>
        </g>
        <g
           transform="matrix(0.4173584,0,0,-0.4204254,181.68616,277.00366)"
           id="g3409">
          <g
             transform="translate(328.2095,577.5865)"
             id="g3411">
            <path
               d="M 0,0 0.757,-4.721 C 1.273,-7.934 0.521,-9.375 -2.955,-9.375 l -11.769,0 c -3.474,0 -4.689,1.441 -5.205,4.654 l -0.977,6.098 c -0.516,3.213 0.236,4.656 3.712,4.656 l 15.407,0 1.179,-3.672 c -1.335,0.557 -2.137,0.656 -3.613,0.656 l -7.442,0 c -1.245,0 -1.663,-0.458 -1.518,-1.574 L -12.949,0 0,0 z m -12.465,-3.016 0.336,-2.097 c 0.142,-0.885 0.462,-1.246 1.315,-1.246 l 3.179,0 c 0.853,0 1.057,0.361 0.915,1.246 l -0.337,2.097 -5.408,0 z"
               id="path3413"
               style="fill:#ffffff;fill-opacity:1;fill-rule:evenodd;stroke:none" />
          </g>
        </g>
        <g
           transform="matrix(0.4173584,0,0,-0.4204254,181.68616,277.00366)"
           id="g3415">
          <g
             transform="translate(348.2035,563.231)"
             id="g3417">
            <path
               d="m 0,0 c 0.221,0.897 0.285,1.729 0.285,3.201 l 0,14.086 c 0,1.473 -0.064,2.305 -0.285,3.201 l 3.224,0 C 3.003,19.592 2.94,18.76 2.94,17.287 L 2.94,0 0,0 z"
               id="path3419"
               style="fill:#ffffff;fill-opacity:1;fill-rule:nonzero;stroke:none" />
          </g>
        </g>
        <g
           transform="matrix(0.4173584,0,0,-0.4204254,181.68616,277.00366)"
           id="g3421">
          <path
             d="m 358.408,566.817 2.656,0 0,-2.178 -2.656,0 0,2.178 z m 2.655,1.855 -2.94,0 c 0.222,0.897 0.285,1.731 0.285,3.203 l 0,8.643 c 0,1.473 -0.063,2.305 -0.285,3.201 l 3.225,0 c -0.223,-0.896 -0.285,-1.728 -0.285,-3.201 l 0,-11.846 z"
             id="path3423"
             style="fill:#ffffff;fill-opacity:1;fill-rule:evenodd;stroke:none" />
        </g>
        <g
           transform="matrix(0.4173584,0,0,-0.4204254,181.68616,277.00366)"
           id="g3425">
          <g
             transform="translate(365.7355,568.6724)"
             id="g3427">
            <path
               d="m 0,0 c 0.474,0.736 0.791,1.346 0.98,1.731 l 6.669,13.316 3.414,0 6.321,-12.164 c 0.379,-0.736 0.885,-1.57 1.802,-2.498 L 19.534,0 16.625,0 c -0.094,0.736 -0.411,1.731 -1.01,2.883 L 9.862,13.768 4.078,2.242 C 3.856,1.762 3.603,1.121 3.381,0 L 0,0 z"
               id="path3429"
               style="fill:#ffffff;fill-opacity:1;fill-rule:nonzero;stroke:none" />
          </g>
        </g>
        <g
           transform="matrix(0.4173584,0,0,-0.4204254,181.68616,277.00366)"
           id="g3431">
          <g
             transform="translate(405.7515,577.1255)"
             id="g3433">
            <path
               d="m 0,0 0,-4.547 c 0,-3.01 -1.011,-3.906 -3.855,-3.906 l -8.946,0 c -2.844,0 -3.856,0.896 -3.856,3.906 l 0,7.237 c 0,3.007 1.012,3.904 3.856,3.904 l 12.485,0 L 0,4.834 c -0.885,0.225 -1.707,0.287 -3.161,0.287 l -9.481,0 c -1.107,0 -1.36,-0.32 -1.36,-1.664 L -14.002,0 0,0 z m -14.002,-1.473 0,-3.841 c 0,-1.346 0.253,-1.666 1.36,-1.666 l 8.628,0 c 1.106,0 1.36,0.32 1.36,1.666 l 0,3.841 -11.348,0 z"
               id="path3435"
               style="fill:#ffffff;fill-opacity:1;fill-rule:evenodd;stroke:none" />
          </g>
        </g>
        <g
           transform="matrix(0.4173584,0,0,-0.4204254,181.68616,277.00366)"
           id="g3437">
          <g
             transform="translate(175.8913,614.0083)"
             id="g3439">
            <path
               d="m 0,0 0,-1.536 c 0,-0.401 -0.112,-0.545 -0.48,-0.545 l -2.465,0 c -0.369,0 -0.481,0.144 -0.481,0.545 L -3.426,0 0,0 z m -3.426,1.185 0,1.344 c 0,0.401 0.112,0.544 0.481,0.544 l 4.85,0 c 0.24,0 0.544,-0.032 0.88,-0.095 l -0.224,1.28 -6.883,0 c -1.281,0 -1.889,-0.624 -1.889,-2.017 l 0,-3.489 c 0,-1.393 0.608,-2.018 1.889,-2.018 l 5.218,0 c 1.281,0 1.889,0.625 1.889,2.018 l 0,2.433 -6.211,0 z"
               id="path3441"
               style="fill:#1a68bb;fill-opacity:1;fill-rule:nonzero;stroke:none" />
          </g>
        </g>
        <g
           transform="matrix(0.4173584,0,0,-0.4204254,181.68616,277.00366)"
           id="g3443">
          <g
             transform="translate(182.9782,616.5699)"
             id="g3445">
            <path
               d="m 0,0 c 0,0.896 0.064,1.344 0.16,1.696 l -3.105,0 c 0.096,-0.352 0.16,-0.8 0.16,-1.696 l 0,-6.852 c 0,-0.895 -0.064,-1.343 -0.16,-1.696 L 0,-8.548 0,0 z"
               id="path3447"
               style="fill:#1a68bb;fill-opacity:1;fill-rule:nonzero;stroke:none" />
          </g>
        </g>
        <g
           transform="matrix(0.4173584,0,0,-0.4204254,181.68616,277.00366)"
           id="g3449">
          <g
             transform="translate(190.7072,614.0083)"
             id="g3451">
            <path
               d="m 0,0 0,-1.536 c 0,-0.401 -0.112,-0.545 -0.48,-0.545 l -2.465,0 c -0.369,0 -0.48,0.144 -0.48,0.545 L -3.425,0 0,0 z m -3.425,1.185 0,1.344 c 0,0.401 0.111,0.544 0.48,0.544 l 4.85,0 c 0.24,0 0.544,-0.032 0.88,-0.095 l -0.224,1.28 -6.883,0 c -1.281,0 -1.888,-0.624 -1.888,-2.017 l 0,-3.489 c 0,-1.393 0.607,-2.018 1.888,-2.018 l 5.218,0 c 1.281,0 1.889,0.625 1.889,2.018 l 0,2.433 -6.21,0 z"
               id="path3453"
               style="fill:#1a68bb;fill-opacity:1;fill-rule:nonzero;stroke:none" />
          </g>
        </g>
        <g
           transform="matrix(0.4173584,0,0,-0.4204254,181.68616,277.00366)"
           id="g3455">
          <g
             transform="translate(197.8415,611.9273)"
             id="g3457">
            <path
               d="m 0,0 c -0.368,0 -0.48,0.144 -0.48,0.545 l 0,4.065 c 0,0.401 0.112,0.544 0.48,0.544 l 3.762,0 c 0.239,0 0.544,-0.032 0.88,-0.095 l -0.224,1.28 -5.794,0 c -1.281,0 -1.889,-0.624 -1.889,-2.017 l 0,-3.489 c 0,-1.393 0.608,-2.018 1.889,-2.018 l 5.794,0 0.224,1.282 C 4.306,0.032 4.001,0 3.762,0 L 0,0 z"
               id="path3459"
               style="fill:#1a68bb;fill-opacity:1;fill-rule:nonzero;stroke:none" />
          </g>
        </g>
        <g
           transform="matrix(0.4173584,0,0,-0.4204254,181.68616,277.00366)"
           id="g3461">
          <g
             transform="translate(209.8585,611.8638)"
             id="g3463">
            <path
               d="m 0,0 -2.705,0 0,4.449 c 0,0.625 0.192,0.769 0.688,0.769 l 1.137,0 c 0.784,0 1.408,-0.08 1.568,-0.176 l -0.256,1.36 -4.098,0 c -1.12,0 -1.824,-0.656 -1.824,-2.129 l 0,-4.273 -1.457,0 0,-1.121 1.457,0 0,-1.536 2.785,-0.368 0,1.904 2.705,0 L 0,0 z"
               id="path3465"
               style="fill:#1a68bb;fill-opacity:1;fill-rule:nonzero;stroke:none" />
          </g>
        </g>
        <g
           transform="matrix(0.4173584,0,0,-0.4204254,181.68616,277.00366)"
           id="g3467">
          <g
             transform="translate(217.6505,612.4078)"
             id="g3469">
            <path
               d="m 0,0 c -0.496,-0.096 -0.832,-0.16 -1.905,-0.16 l -1.056,0 c -0.304,0 -0.48,0.144 -0.48,0.4 l 0,3.922 c 0,0.896 0.064,1.344 0.16,1.696 l -3.106,0 c 0.097,-0.352 0.16,-0.8 0.16,-1.696 l 0,-4.13 c 0,-0.896 -0.063,-1.345 -0.16,-1.697 l 2.674,0 0.111,0.816 0.033,0 c 0.08,-0.608 0.432,-0.816 1.296,-0.816 L 0,-1.665 0,0 z"
               id="path3471"
               style="fill:#1a68bb;fill-opacity:1;fill-rule:nonzero;stroke:none" />
          </g>
        </g>
        <g
           transform="matrix(0.4173584,0,0,-0.4204254,181.68616,277.00366)"
           id="g3473">
          <g
             transform="translate(224.0016,617.0817)"
             id="g3475">
            <path
               d="m 0,0 c 0.368,0 0.48,-0.144 0.48,-0.544 l 0,-4.065 C 0.48,-5.01 0.368,-5.154 0,-5.154 l -2.465,0 c -0.368,0 -0.48,0.144 -0.48,0.545 l 0,4.065 c 0,0.4 0.112,0.544 0.48,0.544 L 0,0 z m -3.841,1.185 c -1.281,0 -1.889,-0.625 -1.889,-2.017 l 0,-3.489 c 0,-1.393 0.608,-2.018 1.889,-2.018 l 5.217,0 c 1.281,0 1.89,0.625 1.89,2.018 l 0,3.489 c 0,1.392 -0.609,2.017 -1.89,2.017 l -5.217,0 z"
               id="path3477"
               style="fill:#1a68bb;fill-opacity:1;fill-rule:nonzero;stroke:none" />
          </g>
        </g>
        <g
           transform="matrix(0.4173584,0,0,-0.4204254,181.68616,277.00366)"
           id="g3479">
          <g
             transform="translate(231.1686,610.7427)"
             id="g3481">
            <path
               d="m 0,0 0.064,0.769 0.032,0 C 0.288,0.177 0.496,0 0.96,0 l 3.426,0 c 1.281,0 1.889,0.625 1.889,2.018 l 0,3.809 c 0,0.896 0.063,1.344 0.16,1.696 l -3.105,0 C 3.425,7.171 3.489,6.723 3.489,5.827 l 0,-4.098 c 0,-0.4 -0.112,-0.544 -0.48,-0.544 l -2.369,0 c -0.368,0 -0.48,0.144 -0.48,0.544 l 0,4.098 c 0,0.896 0.064,1.344 0.16,1.696 l -3.105,0 c 0.096,-0.352 0.16,-0.8 0.16,-1.696 l 0,-4.13 C -2.625,0.801 -2.689,0.353 -2.785,0 L 0,0 z"
               id="path3483"
               style="fill:#1a68bb;fill-opacity:1;fill-rule:nonzero;stroke:none" />
          </g>
        </g>
        <g
           transform="matrix(0.4173584,0,0,-0.4204254,181.68616,277.00366)"
           id="g3485">
          <path
             d="m 241.889,610.006 -2.689,0 0,-1.792 2.689,0 0,1.792 z m 0.049,0.737 0,5.827 c 0,0.895 0.063,1.344 0.158,1.696 l -3.105,0 c 0.098,-0.352 0.162,-0.801 0.162,-1.696 l 0,-4.13 c 0,-0.896 -0.064,-1.345 -0.162,-1.697 l 2.947,0 z"
             id="path3487"
             style="fill:#1a68bb;fill-opacity:1;fill-rule:nonzero;stroke:none" />
        </g>
        <g
           transform="matrix(0.4173584,0,0,-0.4204254,181.68616,277.00366)"
           id="g3489">
          <g
             transform="translate(246.7205,611.9273)"
             id="g3491">
            <path
               d="m 0,0 c -0.368,0 -0.48,0.144 -0.48,0.545 l 0,4.065 c 0,0.401 0.112,0.544 0.48,0.544 l 3.762,0 c 0.24,0 0.544,-0.032 0.88,-0.095 l -0.224,1.28 -5.794,0 c -1.281,0 -1.889,-0.624 -1.889,-2.017 l 0,-3.489 c 0,-1.393 0.608,-2.018 1.889,-2.018 l 5.794,0 0.224,1.282 C 4.306,0.032 4.002,0 3.762,0 L 0,0 z"
               id="path3493"
               style="fill:#1a68bb;fill-opacity:1;fill-rule:nonzero;stroke:none" />
          </g>
        </g>
        <g
           transform="matrix(0.4173584,0,0,-0.4204254,181.68616,277.00366)"
           id="g3495">
          <g
             transform="translate(260.9445,610.7427)"
             id="g3497">
            <path
               d="m 0,0 0.064,0.769 0.032,0 C 0.176,0.465 0.288,0.273 0.416,0.16 0.56,0.049 0.736,0 0.96,0 l 3.842,0 c 0.784,0 0.96,0.129 1.153,0.769 l -0.033,0 C 6.163,0.177 6.371,0 6.835,0 l 3.185,0 c 1.281,0 1.889,0.625 1.889,2.018 l 0,3.809 c 0,0.896 0.064,1.344 0.16,1.696 l -3.105,0 c 0.096,-0.352 0.16,-0.8 0.16,-1.696 l 0,-4.098 c 0,-0.4 -0.112,-0.544 -0.48,-0.544 l -2.129,0 c -0.369,0 -0.48,0.144 -0.48,0.544 l 0,4.098 c 0,0.896 0.064,1.344 0.159,1.696 l -3.105,0 c 0.097,-0.352 0.16,-0.8 0.16,-1.696 l 0,-4.098 c 0,-0.4 -0.112,-0.544 -0.48,-0.544 l -2.129,0 c -0.368,0 -0.48,0.144 -0.48,0.544 l 0,4.098 c 0,0.896 0.064,1.344 0.16,1.696 l -3.105,0 c 0.096,-0.352 0.16,-0.8 0.16,-1.696 l 0,-4.13 C -2.625,0.801 -2.689,0.353 -2.785,0 L 0,0 z"
               id="path3499"
               style="fill:#1a68bb;fill-opacity:1;fill-rule:nonzero;stroke:none" />
          </g>
        </g>
        <g
           transform="matrix(0.4173584,0,0,-0.4204254,181.68616,277.00366)"
           id="g3501">
          <g
             transform="translate(280.5945,618.2662)"
             id="g3503">
            <path
               d="m 0,0 -0.065,-0.769 -0.032,0 C -0.289,-0.176 -0.496,0 -0.961,0 l -3.425,0 c -1.281,0 -1.889,-0.624 -1.889,-2.017 l 0,-3.809 c 0,-0.897 -0.064,-1.345 -0.16,-1.697 l 2.945,0 0,5.794 c 0,0.401 0.112,0.544 0.48,0.544 l 2.369,0 c 0.368,0 0.481,-0.143 0.481,-0.544 l 0,-4.097 c 0,-0.897 -0.065,-1.345 -0.16,-1.697 l 2.945,0 0,5.827 c 0,0.895 0.063,1.343 0.16,1.696 L 0,0 z"
               id="path3505"
               style="fill:#1a68bb;fill-opacity:1;fill-rule:nonzero;stroke:none" />
          </g>
        </g>
        <g
           transform="matrix(0.4173584,0,0,-0.4204254,181.68616,277.00366)"
           id="g3507">
          <g
             transform="translate(292.9795,616.5855)"
             id="g3509">
            <path
               d="m 0,0 c 0,1.12 -0.641,1.681 -1.922,1.681 l -6.403,0 -0.208,-1.297 c 0.449,0.144 0.8,0.176 1.826,0.176 l 3.392,0 c 0.369,0 0.593,-0.192 0.593,-0.496 l 0,-0.416 c 0,-0.304 -0.224,-0.497 -0.593,-0.497 l -3.537,0 c -1.152,0 -1.713,-0.656 -1.713,-2.049 l 0,-0.912 c 0,-1.392 0.561,-2.033 1.713,-2.033 l 6.643,0 L 0,-4.546 C -0.45,-4.69 -0.801,-4.722 -1.826,-4.722 l -3.521,0 c -0.337,0 -0.497,0.144 -0.497,0.449 l 0,0.351 c 0,0.305 0.16,0.448 0.497,0.448 l 3.425,0 C -0.641,-3.474 0,-2.913 0,-1.793 L 0,0 z"
               id="path3511"
               style="fill:#1a68bb;fill-opacity:1;fill-rule:nonzero;stroke:none" />
          </g>
        </g>
        <g
           transform="matrix(0.4173584,0,0,-0.4204254,181.68616,277.00366)"
           id="g3513">
          <path
             d="m 297.152,610.006 -2.689,0 0,-1.792 2.689,0 0,1.792 z m 0.047,0.737 0,5.827 c 0,0.895 0.065,1.344 0.161,1.696 l -3.106,0 c 0.098,-0.352 0.16,-0.801 0.16,-1.696 l 0,-4.13 c 0,-0.896 -0.062,-1.345 -0.16,-1.697 l 2.945,0 z"
             id="path3515"
             style="fill:#1a68bb;fill-opacity:1;fill-rule:nonzero;stroke:none" />
        </g>
        <g
           transform="matrix(0.4173584,0,0,-0.4204254,181.68616,277.00366)"
           id="g3517">
          <g
             transform="translate(301.9845,611.9273)"
             id="g3519">
            <path
               d="m 0,0 c -0.369,0 -0.481,0.144 -0.481,0.545 l 0,4.065 c 0,0.401 0.112,0.544 0.481,0.544 l 3.761,0 c 0.24,0 0.544,-0.032 0.88,-0.095 l -0.223,1.28 -5.794,0 c -1.282,0 -1.889,-0.624 -1.889,-2.017 l 0,-3.489 c 0,-1.393 0.607,-2.018 1.889,-2.018 l 5.794,0 0.223,1.282 C 4.305,0.032 4.001,0 3.761,0 L 0,0 z"
               id="path3521"
               style="fill:#1a68bb;fill-opacity:1;fill-rule:nonzero;stroke:none" />
          </g>
        </g>
        <g
           transform="matrix(0.4173584,0,0,-0.4204254,181.68616,277.00366)"
           id="g3523">
          <g
             transform="translate(319.8735,612.4078)"
             id="g3525">
            <path
               d="m 0,0 c -0.496,-0.096 -0.833,-0.16 -1.905,-0.16 l -1.057,0 c -0.303,0 -0.479,0.144 -0.479,0.4 l 0,3.922 c 0,0.896 0.063,1.344 0.16,1.696 l -3.106,0 c 0.096,-0.352 0.161,-0.8 0.161,-1.696 l 0,-4.13 c 0,-0.896 -0.065,-1.345 -0.161,-1.697 l 2.673,0 0.113,0.816 0.031,0 c 0.08,-0.608 0.432,-0.816 1.297,-0.816 L 0,-1.665 0,0 z"
               id="path3527"
               style="fill:#1a68bb;fill-opacity:1;fill-rule:nonzero;stroke:none" />
          </g>
        </g>
        <g
           transform="matrix(0.4173584,0,0,-0.4204254,181.68616,277.00366)"
           id="g3529">
          <g
             transform="translate(323.7595,614.233)"
             id="g3531">
            <path
               d="m 0,0 c -0.368,0 -0.481,0.143 -0.481,0.544 l 0,1.761 c 0,0.4 0.113,0.544 0.481,0.544 l 2.465,0 c 0.368,0 0.48,-0.144 0.48,-0.544 L 2.945,0 0,0 z m 5.73,2.337 c 0,0.895 0.064,1.344 0.16,1.696 l -2.577,0 -0.129,-0.784 -0.031,0 C 2.913,3.857 2.642,4.033 2.081,4.033 l -3.457,0 c -1.313,0 -1.889,-0.544 -1.889,-2.609 0,-2.065 0.576,-2.609 1.889,-2.609 l 3.921,0 c 0.257,0 0.4,-0.096 0.4,-0.352 l 0,-0.481 c 0,-0.255 -0.143,-0.351 -0.4,-0.351 l -4.194,0 c -0.463,0 -0.752,0.015 -1.344,0.16 l 0.176,-1.281 6.658,0 c 1.281,0 1.889,0.625 1.889,2.017 l 0,3.81 z"
               id="path3533"
               style="fill:#1a68bb;fill-opacity:1;fill-rule:nonzero;stroke:none" />
          </g>
        </g>
        <g
           transform="matrix(0.4173584,0,0,-0.4204254,181.68616,277.00366)"
           id="g3535">
          <g
             transform="translate(336.3045,617.0817)"
             id="g3537">
            <path
               d="m 0,0 c 0.368,0 0.48,-0.144 0.48,-0.544 l 0,-4.065 C 0.48,-5.01 0.368,-5.154 0,-5.154 l -2.465,0 c -0.368,0 -0.48,0.144 -0.48,0.545 l 0,4.065 c 0,0.4 0.112,0.544 0.48,0.544 L 0,0 z m 0.48,0.48 -0.032,0 C 0.337,0.881 0.063,1.185 -0.353,1.185 l -3.488,0 c -1.281,0 -1.889,-0.625 -1.889,-2.017 l 0,-3.489 c 0,-1.393 0.608,-2.018 1.889,-2.018 l 3.361,0 c 0.224,0 0.4,0.032 0.528,0.16 0.144,0.113 0.24,0.305 0.369,0.609 l 0.063,0 0,-1.793 c 0,-0.896 -0.063,-1.344 -0.16,-1.697 l 2.945,0 0,8.548 c 0,0.896 0.064,1.344 0.16,1.697 L 0.64,1.185 0.48,0.48 z"
               id="path3539"
               style="fill:#1a68bb;fill-opacity:1;fill-rule:nonzero;stroke:none" />
          </g>
        </g>
        <g
           transform="matrix(0.4173584,0,0,-0.4204254,181.68616,277.00366)"
           id="g3541">
          <path
             d="m 343.823,610.006 -2.688,0 0,-1.792 2.688,0 0,1.792 z m 0.048,0.737 0,5.827 c 0,0.895 0.065,1.344 0.16,1.696 l -3.104,0 c 0.095,-0.352 0.159,-0.801 0.159,-1.696 l 0,-4.13 c 0,-0.896 -0.064,-1.345 -0.159,-1.697 l 2.944,0 z"
             id="path3543"
             style="fill:#1a68bb;fill-opacity:1;fill-rule:nonzero;stroke:none" />
        </g>
        <g
           transform="matrix(0.4173584,0,0,-0.4204254,181.68616,277.00366)"
           id="g3545">
          <g
             transform="translate(351.1195,617.0817)"
             id="g3547">
            <path
               d="m 0,0 c 0.369,0 0.481,-0.144 0.481,-0.544 l 0,-4.065 C 0.481,-5.01 0.369,-5.154 0,-5.154 l -2.465,0 c -0.367,0 -0.479,0.144 -0.479,0.545 l 0,4.065 c 0,0.4 0.112,0.544 0.479,0.544 L 0,0 z m -3.841,1.185 c -1.28,0 -1.888,-0.625 -1.888,-2.017 l 0,-3.489 c 0,-1.393 0.608,-2.018 1.888,-2.018 l 5.218,0 c 1.281,0 1.889,0.625 1.889,2.018 l 0,3.489 c 0,1.392 -0.608,2.017 -1.889,2.017 l -5.218,0 z"
               id="path3549"
               style="fill:#1a68bb;fill-opacity:1;fill-rule:nonzero;stroke:none" />
          </g>
        </g>
      </g>
    </g>
  </g>
</svg>
